<svg width="24" height="24" xmlns="http://www.w3.org/2000/svg" fill-rule="evenodd" clip-rule="evenodd"><path d="M13 24.004v-4.084c-2.836-.476-5-2.946-5-5.917 0-1.561.022-1.225 5.076-13.385.016 0 .223-.615.924-.615.697 0 .909.613.925.613 4.656 11.172 5.075 11.546 5.075 13.387 0 2.971-2.164 5.441-5 5.917v4.084h-2zm-7 0h-2v-3.434c-2.28-.464-4-2.482-4-4.899 0-1.302.019-1.023 4.23-11.154.014 0 .186-.513.77-.513.581 0 .758.511.771.511.978 2.346 1.731 4.118 2.311 5.485-1.05 2.582-1.082 2.941-1.082 4.004 0 1.844.723 3.523 1.903 4.781-.718.899-1.735 1.548-2.903 1.785v3.434zm15-6.003c1.656 0 3 1.344 3 3s-1.344 3-3 3-3-1.344-3-3 1.344-3 3-3z"/></svg>